<svg width="569" height="57" viewBox="0 0 569 57" fill="none" xmlns="http://www.w3.org/2000/svg">
<rect y="20" width="569" height="37" fill="#DEC584" fill-opacity="0.7"/>
<path d="M26.7758 48.7706C24.3563 48.7706 22.1771 48.3397 20.2382 47.478C18.3158 46.5997 16.7912 45.3071 15.6643 43.6001C14.554 41.8932 13.9988 39.7886 13.9988 37.2862C13.9988 35.1319 14.3966 33.3504 15.192 31.9418C15.9875 30.5331 17.0729 29.4062 18.4484 28.5611C19.8239 27.7159 21.3734 27.0779 23.0969 26.647C24.8369 26.1996 26.635 25.8764 28.491 25.6776C30.7283 25.4455 32.5429 25.2384 33.9349 25.0561C35.327 24.8572 36.3379 24.5589 36.9676 24.1612C37.6139 23.7469 37.9371 23.1089 37.9371 22.2472V22.098C37.9371 20.2254 37.3819 18.7753 36.2716 17.7479C35.1613 16.7204 33.5621 16.2067 31.474 16.2067C29.2699 16.2067 27.5216 16.6873 26.229 17.6484C24.9529 18.6096 24.0912 19.7448 23.6437 21.054L15.2417 19.8608C15.9046 17.5407 16.9984 15.6018 18.523 14.044C20.0476 12.4697 21.912 11.2931 24.116 10.5142C26.3201 9.71875 28.7562 9.32102 31.4243 9.32102C33.2638 9.32102 35.095 9.53646 36.9179 9.96733C38.7408 10.3982 40.4063 11.1108 41.9143 12.1051C43.4224 13.0829 44.6321 14.4169 45.5436 16.1072C46.4716 17.7976 46.9356 19.9105 46.9356 22.446V48H38.2851V42.755H37.9868C37.4399 43.8156 36.6693 44.8099 35.675 45.7379C34.6972 46.6494 33.4626 47.3868 31.9711 47.9503C30.4962 48.4972 28.7645 48.7706 26.7758 48.7706ZM29.1125 42.1584C30.9188 42.1584 32.4849 41.8021 33.8106 41.0895C35.1364 40.3603 36.1556 39.3991 36.8682 38.206C37.5973 37.0128 37.9619 35.7119 37.9619 34.3033V29.804C37.6802 30.036 37.1996 30.2514 36.5202 30.4503C35.8573 30.6491 35.1115 30.8232 34.2829 30.9723C33.4543 31.1214 32.634 31.254 31.822 31.37C31.01 31.486 30.3057 31.5855 29.7091 31.6683C28.3667 31.8506 27.1653 32.1489 26.1047 32.5632C25.0441 32.9775 24.2072 33.5575 23.594 34.3033C22.9809 35.0324 22.6743 35.977 22.6743 37.1371C22.6743 38.7943 23.2791 40.0455 24.4889 40.8906C25.6987 41.7358 27.2399 42.1584 29.1125 42.1584ZM64.9825 25.6278V48H55.9839V9.81818H64.5848V16.3061H65.0322C65.9105 14.1683 67.3109 12.4697 69.2332 11.2102C71.1721 9.95076 73.5668 9.32102 76.4172 9.32102C79.0521 9.32102 81.3473 9.88447 83.3028 11.0114C85.2749 12.1383 86.7995 13.7706 87.8767 15.9084C88.9704 18.0462 89.509 20.6397 89.4925 23.6889V48H80.4939V25.081C80.4939 22.5289 79.831 20.532 78.5052 19.0902C77.1961 17.6484 75.3814 16.9276 73.0613 16.9276C71.487 16.9276 70.0867 17.2756 68.8604 17.9716C67.6506 18.651 66.6977 19.6371 66.0017 20.9297C65.3222 22.2223 64.9825 23.7884 64.9825 25.6278ZM107.639 25.6278V48H98.6402V9.81818H107.241V16.3061H107.688C108.567 14.1683 109.967 12.4697 111.889 11.2102C113.828 9.95076 116.223 9.32102 119.073 9.32102C121.708 9.32102 124.004 9.88447 125.959 11.0114C127.931 12.1383 129.456 13.7706 130.533 15.9084C131.627 18.0462 132.165 20.6397 132.149 23.6889V48H123.15V25.081C123.15 22.5289 122.487 20.532 121.161 19.0902C119.852 17.6484 118.038 16.9276 115.718 16.9276C114.143 16.9276 112.743 17.2756 111.517 17.9716C110.307 18.651 109.354 19.6371 108.658 20.9297C107.978 22.2223 107.639 23.7884 107.639 25.6278ZM157.951 48.7457C154.223 48.7457 150.991 47.9254 148.257 46.2848C145.522 44.6442 143.401 42.349 141.893 39.3991C140.402 36.4493 139.656 33.0024 139.656 29.0582C139.656 25.1141 140.402 21.6589 141.893 18.6925C143.401 15.7261 145.522 13.4226 148.257 11.782C150.991 10.1413 154.223 9.32102 157.951 9.32102C161.68 9.32102 164.911 10.1413 167.646 11.782C170.38 13.4226 172.493 15.7261 173.985 18.6925C175.493 21.6589 176.247 25.1141 176.247 29.0582C176.247 33.0024 175.493 36.4493 173.985 39.3991C172.493 42.349 170.38 44.6442 167.646 46.2848C164.911 47.9254 161.68 48.7457 157.951 48.7457ZM158.001 41.5369C160.023 41.5369 161.713 40.9818 163.072 39.8714C164.431 38.7446 165.442 37.2365 166.105 35.3473C166.784 33.4581 167.124 31.3535 167.124 29.0334C167.124 26.6967 166.784 24.5838 166.105 22.6946C165.442 20.7888 164.431 19.2725 163.072 18.1456C161.713 17.0187 160.023 16.4553 158.001 16.4553C155.929 16.4553 154.206 17.0187 152.831 18.1456C151.472 19.2725 150.452 20.7888 149.773 22.6946C149.11 24.5838 148.779 26.6967 148.779 29.0334C148.779 31.3535 149.11 33.4581 149.773 35.3473C150.452 37.2365 151.472 38.7446 152.831 39.8714C154.206 40.9818 155.929 41.5369 158.001 41.5369ZM208.22 31.9418V9.81818H217.219V48H208.494V41.2138H208.096C207.234 43.3516 205.817 45.0999 203.845 46.4588C201.89 47.8177 199.479 48.4972 196.612 48.4972C194.109 48.4972 191.897 47.942 189.975 46.8317C188.069 45.7048 186.577 44.0724 185.5 41.9347C184.423 39.7803 183.884 37.1785 183.884 34.1293V9.81818H192.883V32.7372C192.883 35.1567 193.546 37.0791 194.872 38.5043C196.197 39.9295 197.937 40.642 200.092 40.642C201.417 40.642 202.702 40.3189 203.945 39.6726C205.188 39.0263 206.207 38.0651 207.002 36.7891C207.814 35.4964 208.22 33.8807 208.22 31.9418ZM235.471 25.6278V48H226.472V9.81818H235.073V16.3061H235.521C236.399 14.1683 237.799 12.4697 239.722 11.2102C241.66 9.95076 244.055 9.32102 246.905 9.32102C249.54 9.32102 251.836 9.88447 253.791 11.0114C255.763 12.1383 257.288 13.7706 258.365 15.9084C259.459 18.0462 259.997 20.6397 259.981 23.6889V48H250.982V25.081C250.982 22.5289 250.319 20.532 248.994 19.0902C247.684 17.6484 245.87 16.9276 243.55 16.9276C241.975 16.9276 240.575 17.2756 239.349 17.9716C238.139 18.651 237.186 19.6371 236.49 20.9297C235.811 22.2223 235.471 23.7884 235.471 25.6278ZM285.783 48.7457C281.972 48.7457 278.699 47.9089 275.964 46.2351C273.247 44.5613 271.15 42.2495 269.675 39.2997C268.217 36.3333 267.488 32.9195 267.488 29.0582C267.488 25.1804 268.234 21.7583 269.725 18.7919C271.217 15.8089 273.321 13.4889 276.039 11.8317C278.773 10.1579 282.005 9.32102 285.734 9.32102C288.833 9.32102 291.575 9.89276 293.962 11.0362C296.364 12.1631 298.279 13.7623 299.704 15.8338C301.129 17.8887 301.941 20.2917 302.14 23.0426H293.539C293.191 21.2031 292.362 19.6702 291.053 18.4439C289.761 17.201 288.029 16.5795 285.858 16.5795C284.018 16.5795 282.403 17.0767 281.011 18.071C279.619 19.0488 278.533 20.4574 277.754 22.2969C276.992 24.1364 276.611 26.3404 276.611 28.9091C276.611 31.5109 276.992 33.7481 277.754 35.6207C278.516 37.4768 279.585 38.9103 280.961 39.9212C282.353 40.9155 283.985 41.4126 285.858 41.4126C287.184 41.4126 288.369 41.1641 289.413 40.6669C290.473 40.1532 291.36 39.4157 292.072 38.4545C292.785 37.4934 293.274 36.325 293.539 34.9496H302.14C301.924 37.6508 301.129 40.0455 299.753 42.1335C298.378 44.205 296.505 45.8291 294.136 47.0057C291.766 48.1657 288.982 48.7457 285.783 48.7457ZM326.432 48.7457C322.604 48.7457 319.298 47.9503 316.514 46.3594C313.746 44.7519 311.617 42.4815 310.125 39.5483C308.634 36.5985 307.888 33.1267 307.888 29.1328C307.888 25.2053 308.634 21.7583 310.125 18.7919C311.633 15.8089 313.738 13.4889 316.439 11.8317C319.141 10.1579 322.314 9.32102 325.96 9.32102C328.313 9.32102 330.534 9.70218 332.622 10.4645C334.727 11.2102 336.583 12.3703 338.19 13.9446C339.814 15.5189 341.09 17.5241 342.018 19.9602C342.946 22.3797 343.41 25.2633 343.41 28.6108V31.37H312.114V25.3047H334.785C334.768 23.5812 334.395 22.0483 333.666 20.706C332.937 19.3471 331.918 18.2782 330.608 17.4993C329.316 16.7204 327.808 16.331 326.084 16.331C324.245 16.331 322.629 16.7784 321.237 17.6733C319.845 18.5516 318.759 19.7116 317.981 21.1534C317.218 22.5786 316.829 24.1446 316.812 25.8516V31.1463C316.812 33.367 317.218 35.2727 318.03 36.8636C318.842 38.438 319.977 39.6477 321.436 40.4929C322.894 41.3215 324.601 41.7358 326.557 41.7358C327.866 41.7358 329.051 41.5535 330.111 41.1889C331.172 40.8078 332.092 40.2526 332.87 39.5234C333.649 38.7943 334.238 37.8911 334.635 36.8139L343.037 37.7585C342.507 39.9792 341.496 41.9181 340.005 43.5753C338.53 45.2159 336.641 46.492 334.337 47.4034C332.034 48.2983 329.399 48.7457 326.432 48.7457ZM351.023 48V9.81818H359.624V16.3061H360.071C360.867 14.1186 362.184 12.4117 364.024 11.1854C365.863 9.94247 368.059 9.32102 370.611 9.32102C373.196 9.32102 375.376 9.95076 377.149 11.2102C378.938 12.4531 380.198 14.1518 380.927 16.3061H381.325C382.17 14.1849 383.595 12.4946 385.6 11.2351C387.622 9.95904 390.017 9.32102 392.784 9.32102C396.298 9.32102 399.165 10.4313 401.385 12.652C403.606 14.8726 404.716 18.1125 404.716 22.3714V48H395.693V23.7635C395.693 21.3937 395.063 19.6619 393.804 18.5682C392.544 17.4579 391.003 16.9027 389.18 16.9027C387.009 16.9027 385.31 17.5821 384.084 18.9411C382.874 20.2834 382.269 22.0317 382.269 24.1861V48H373.445V23.3906C373.445 21.4186 372.848 19.8442 371.655 18.6676C370.478 17.491 368.937 16.9027 367.032 16.9027C365.739 16.9027 364.562 17.2341 363.502 17.897C362.441 18.5433 361.596 19.4631 360.966 20.6562C360.336 21.8329 360.022 23.2083 360.022 24.7827V48H351.023ZM430.749 48.7457C426.921 48.7457 423.614 47.9503 420.83 46.3594C418.063 44.7519 415.933 42.4815 414.442 39.5483C412.95 36.5985 412.205 33.1267 412.205 29.1328C412.205 25.2053 412.95 21.7583 414.442 18.7919C415.95 15.8089 418.055 13.4889 420.756 11.8317C423.457 10.1579 426.631 9.32102 430.276 9.32102C432.63 9.32102 434.85 9.70218 436.938 10.4645C439.043 11.2102 440.899 12.3703 442.506 13.9446C444.131 15.5189 445.407 17.5241 446.335 19.9602C447.263 22.3797 447.727 25.2633 447.727 28.6108V31.37H416.43V25.3047H439.101C439.084 23.5812 438.712 22.0483 437.982 20.706C437.253 19.3471 436.234 18.2782 434.925 17.4993C433.632 16.7204 432.124 16.331 430.401 16.331C428.561 16.331 426.945 16.7784 425.553 17.6733C424.161 18.5516 423.076 19.7116 422.297 21.1534C421.535 22.5786 421.145 24.1446 421.129 25.8516V31.1463C421.129 33.367 421.535 35.2727 422.347 36.8636C423.159 38.438 424.294 39.6477 425.752 40.4929C427.211 41.3215 428.917 41.7358 430.873 41.7358C432.182 41.7358 433.367 41.5535 434.428 41.1889C435.488 40.8078 436.408 40.2526 437.187 39.5234C437.966 38.7943 438.554 37.8911 438.952 36.8139L447.354 37.7585C446.823 39.9792 445.813 41.9181 444.321 43.5753C442.846 45.2159 440.957 46.492 438.653 47.4034C436.35 48.2983 433.715 48.7457 430.749 48.7457ZM464.338 25.6278V48H455.339V9.81818H463.94V16.3061H464.388C465.266 14.1683 466.666 12.4697 468.589 11.2102C470.528 9.95076 472.922 9.32102 475.773 9.32102C478.408 9.32102 480.703 9.88447 482.658 11.0114C484.63 12.1383 486.155 13.7706 487.232 15.9084C488.326 18.0462 488.864 20.6397 488.848 23.6889V48H479.849V25.081C479.849 22.5289 479.186 20.532 477.861 19.0902C476.552 17.6484 474.737 16.9276 472.417 16.9276C470.842 16.9276 469.442 17.2756 468.216 17.9716C467.006 18.651 466.053 19.6371 465.357 20.9297C464.678 22.2223 464.338 23.7884 464.338 25.6278ZM517.062 9.81818V16.7784H495.112V9.81818H517.062ZM500.531 0.670454H509.53V36.5156C509.53 37.7254 509.712 38.6534 510.077 39.2997C510.458 39.9295 510.955 40.3603 511.568 40.5923C512.181 40.8243 512.861 40.9403 513.606 40.9403C514.17 40.9403 514.684 40.8989 515.148 40.8161C515.628 40.7332 515.993 40.6586 516.241 40.5923L517.758 47.6271C517.277 47.7929 516.589 47.9751 515.695 48.174C514.816 48.3729 513.739 48.4889 512.463 48.522C510.209 48.5883 508.179 48.2486 506.373 47.5028C504.566 46.7405 503.133 45.5639 502.072 43.973C501.028 42.3821 500.515 40.3935 500.531 38.0071V0.670454ZM554.218 19.9105L546.015 20.8054C545.783 19.9768 545.377 19.1979 544.797 18.4688C544.234 17.7396 543.471 17.1513 542.51 16.7038C541.549 16.2564 540.372 16.0327 538.98 16.0327C537.108 16.0327 535.533 16.4387 534.257 17.2507C532.998 18.0627 532.376 19.1151 532.393 20.4077C532.376 21.518 532.782 22.4212 533.611 23.1172C534.456 23.8132 535.848 24.3849 537.787 24.8324L544.3 26.2244C547.912 27.0033 550.597 28.2379 552.354 29.9283C554.127 31.6186 555.022 33.831 555.038 36.5653C555.022 38.9683 554.318 41.0895 552.926 42.929C551.55 44.7519 549.636 46.1771 547.183 47.2045C544.731 48.232 541.913 48.7457 538.732 48.7457C534.058 48.7457 530.296 47.768 527.446 45.8125C524.596 43.8404 522.897 41.0978 522.35 37.5845L531.125 36.7393C531.523 38.4628 532.368 39.7637 533.661 40.642C534.953 41.5204 536.635 41.9595 538.707 41.9595C540.845 41.9595 542.56 41.5204 543.852 40.642C545.162 39.7637 545.816 38.6783 545.816 37.3857C545.816 36.2919 545.394 35.3887 544.548 34.6761C543.72 33.9635 542.427 33.4167 540.671 33.0355L534.158 31.6683C530.495 30.906 527.786 29.6217 526.029 27.8153C524.273 25.9924 523.403 23.6889 523.419 20.9048C523.403 18.5516 524.041 16.5133 525.333 14.7898C526.642 13.0497 528.457 11.7074 530.777 10.7628C533.114 9.80161 535.807 9.32102 538.856 9.32102C543.33 9.32102 546.852 10.2739 549.421 12.1797C552.006 14.0855 553.605 16.6624 554.218 19.9105Z" fill="black"/>
</svg>
