<svg width="223" height="67" viewBox="0 0 223 67" fill="none" xmlns="http://www.w3.org/2000/svg">
<rect y="24" width="223" height="33" fill="#DEC584" fill-opacity="0.7"/>
<path d="M22.4715 51V0.0909076H31.4701V19.1321H31.843C32.307 18.2041 32.9616 17.218 33.8067 16.174C34.6519 15.1134 35.7954 14.2102 37.2371 13.4645C38.6789 12.7022 40.5184 12.321 42.7556 12.321C45.7054 12.321 48.3652 13.075 50.735 14.5831C53.1214 16.0746 55.0106 18.2869 56.4026 21.2202C57.8112 24.1368 58.5155 27.7164 58.5155 31.9588C58.5155 36.1515 57.8278 39.7145 56.4523 42.6477C55.0769 45.581 53.2042 47.8182 50.8344 49.3594C48.4646 50.9006 45.78 51.6712 42.7805 51.6712C40.593 51.6712 38.7783 51.3066 37.3366 50.5774C35.8948 49.8482 34.7348 48.9699 33.8564 47.9425C32.9947 46.8984 32.3235 45.9124 31.843 44.9844H31.3209V51H22.4715ZM31.2961 31.9091C31.2961 34.3783 31.6441 36.541 32.3401 38.397C33.0527 40.2531 34.0719 41.7031 35.3976 42.7472C36.74 43.7746 38.364 44.2884 40.2698 44.2884C42.2584 44.2884 43.9239 43.758 45.2662 42.6974C46.6086 41.6203 47.6195 40.1536 48.2989 38.2976C48.9949 36.425 49.343 34.2955 49.343 31.9091C49.343 29.5393 49.0032 27.4347 48.3238 25.5952C47.6443 23.7557 46.6334 22.3139 45.2911 21.2699C43.9488 20.2259 42.275 19.7038 40.2698 19.7038C38.3475 19.7038 36.7151 20.2093 35.3728 21.2202C34.0305 22.2311 33.0113 23.648 32.3153 25.4709C31.6358 27.2938 31.2961 29.4399 31.2961 31.9091ZM75.1642 0.0909076V51H66.1656V0.0909076H75.1642ZM101.072 51.7457C97.3437 51.7457 94.1121 50.9254 91.3778 49.2848C88.6434 47.6442 86.5222 45.349 85.0141 42.3991C83.5226 39.4493 82.7769 36.0024 82.7769 32.0582C82.7769 28.1141 83.5226 24.6589 85.0141 21.6925C86.5222 18.7261 88.6434 16.4226 91.3778 14.782C94.1121 13.1413 97.3437 12.321 101.072 12.321C104.801 12.321 108.033 13.1413 110.767 14.782C113.501 16.4226 115.614 18.7261 117.106 21.6925C118.614 24.6589 119.368 28.1141 119.368 32.0582C119.368 36.0024 118.614 39.4493 117.106 42.3991C115.614 45.349 113.501 47.6442 110.767 49.2848C108.033 50.9254 104.801 51.7457 101.072 51.7457ZM101.122 44.5369C103.144 44.5369 104.834 43.9818 106.193 42.8714C107.552 41.7446 108.563 40.2365 109.226 38.3473C109.905 36.4581 110.245 34.3535 110.245 32.0334C110.245 29.6967 109.905 27.5838 109.226 25.6946C108.563 23.7888 107.552 22.2725 106.193 21.1456C104.834 20.0187 103.144 19.4553 101.122 19.4553C99.0506 19.4553 97.3271 20.0187 95.9516 21.1456C94.5927 22.2725 93.5735 23.7888 92.8941 25.6946C92.2312 27.5838 91.8998 29.6967 91.8998 32.0334C91.8998 34.3535 92.2312 36.4581 92.8941 38.3473C93.5735 40.2365 94.5927 41.7446 95.9516 42.8714C97.3271 43.9818 99.0506 44.5369 101.122 44.5369ZM143.611 66.1136C140.379 66.1136 137.603 65.6745 135.283 64.7962C132.963 63.9344 131.099 62.7744 129.69 61.3161C128.281 59.8577 127.304 58.242 126.757 56.4688L134.861 54.505C135.225 55.2507 135.755 55.9882 136.451 56.7173C137.147 57.4631 138.084 58.0762 139.26 58.5568C140.454 59.054 141.953 59.3026 143.76 59.3026C146.312 59.3026 148.425 58.6811 150.098 57.4382C151.772 56.2119 152.609 54.1901 152.609 51.3729V44.1392H152.162C151.698 45.0672 151.018 46.0201 150.123 46.9979C149.245 47.9756 148.077 48.7959 146.618 49.4588C145.177 50.1217 143.362 50.4531 141.174 50.4531C138.241 50.4531 135.581 49.7654 133.195 48.3899C130.825 46.9979 128.936 44.9264 127.527 42.1754C126.135 39.4079 125.439 35.9444 125.439 31.7848C125.439 27.5921 126.135 24.054 127.527 21.1705C128.936 18.2704 130.834 16.0746 133.22 14.5831C135.606 13.075 138.266 12.321 141.199 12.321C143.437 12.321 145.276 12.7022 146.718 13.4645C148.176 14.2102 149.336 15.1134 150.198 16.174C151.06 17.218 151.714 18.2041 152.162 19.1321H152.659V12.8182H161.533V51.6214C161.533 54.8861 160.754 57.5874 159.196 59.7251C157.639 61.8629 155.509 63.4621 152.808 64.5227C150.107 65.5833 147.041 66.1136 143.611 66.1136ZM143.685 43.3935C145.591 43.3935 147.215 42.9295 148.557 42.0014C149.9 41.0734 150.919 39.7393 151.615 37.9993C152.311 36.2592 152.659 34.1712 152.659 31.7351C152.659 29.3321 152.311 27.2275 151.615 25.4212C150.935 23.6148 149.924 22.2145 148.582 21.2202C147.256 20.2093 145.624 19.7038 143.685 19.7038C141.68 19.7038 140.006 20.2259 138.664 21.2699C137.321 22.3139 136.311 23.7474 135.631 25.5703C134.952 27.3767 134.612 29.4316 134.612 31.7351C134.612 34.0717 134.952 36.1184 135.631 37.875C136.327 39.6151 137.346 40.974 138.689 41.9517C140.048 42.9129 141.713 43.3935 143.685 43.3935ZM200.933 22.9105L192.73 23.8054C192.498 22.9768 192.092 22.1979 191.512 21.4688C190.948 20.7396 190.186 20.1513 189.225 19.7038C188.264 19.2564 187.087 19.0327 185.695 19.0327C183.822 19.0327 182.248 19.4387 180.972 20.2507C179.713 21.0627 179.091 22.1151 179.108 23.4077C179.091 24.518 179.497 25.4212 180.326 26.1172C181.171 26.8132 182.563 27.3849 184.502 27.8324L191.015 29.2244C194.627 30.0033 197.312 31.2379 199.069 32.9283C200.842 34.6186 201.737 36.831 201.753 39.5653C201.737 41.9683 201.032 44.0895 199.64 45.929C198.265 47.7519 196.351 49.1771 193.898 50.2045C191.446 51.232 188.628 51.7457 185.446 51.7457C180.773 51.7457 177.011 50.768 174.161 48.8125C171.311 46.8404 169.612 44.0978 169.065 40.5845L177.84 39.7393C178.238 41.4628 179.083 42.7637 180.375 43.642C181.668 44.5204 183.35 44.9595 185.422 44.9595C187.559 44.9595 189.275 44.5204 190.567 43.642C191.876 42.7637 192.531 41.6783 192.531 40.3857C192.531 39.2919 192.108 38.3887 191.263 37.6761C190.435 36.9635 189.142 36.4167 187.385 36.0355L180.873 34.6683C177.21 33.906 174.501 32.6217 172.744 30.8153C170.987 28.9924 170.117 26.6889 170.134 23.9048C170.117 21.5516 170.755 19.5133 172.048 17.7898C173.357 16.0497 175.172 14.7074 177.492 13.7628C179.829 12.8016 182.522 12.321 185.571 12.321C190.045 12.321 193.567 13.2739 196.135 15.1797C198.721 17.0855 200.32 19.6624 200.933 22.9105Z" fill="black"/>
</svg>

