<svg width="257" height="56" viewBox="0 0 257 56" fill="none" xmlns="http://www.w3.org/2000/svg">
<rect y="24" width="257" height="32" fill="#DEC584" fill-opacity="0.7"/>
<path d="M36.5036 48.7457C32.6754 48.7457 29.3693 47.9503 26.5852 46.3594C23.8177 44.7519 21.6882 42.4815 20.1967 39.5483C18.7053 36.5985 17.9595 33.1267 17.9595 29.1328C17.9595 25.2053 18.7053 21.7583 20.1967 18.7919C21.7048 15.8089 23.8094 13.4889 26.5107 11.8317C29.2119 10.1579 32.3854 9.32102 36.0312 9.32102C38.3845 9.32102 40.6051 9.70218 42.6932 10.4645C44.7978 11.2102 46.6539 12.3703 48.2614 13.9446C49.8854 15.5189 51.1615 17.5241 52.0895 19.9602C53.0175 22.3797 53.4815 25.2633 53.4815 28.6108V31.37H22.1854V25.3047H44.8558C44.8393 23.5812 44.4664 22.0483 43.7372 20.706C43.0081 19.3471 41.9889 18.2782 40.6797 17.4993C39.3871 16.7204 37.879 16.331 36.1555 16.331C34.3161 16.331 32.7003 16.7784 31.3082 17.6733C29.9162 18.5516 28.8307 19.7116 28.0518 21.1534C27.2895 22.5786 26.9001 24.1446 26.8835 25.8516V31.1463C26.8835 33.367 27.2895 35.2727 28.1016 36.8636C28.9136 38.438 30.0488 39.6477 31.5071 40.4929C32.9654 41.3215 34.6723 41.7358 36.6278 41.7358C37.937 41.7358 39.1219 41.5535 40.1825 41.1889C41.2431 40.8078 42.1629 40.2526 42.9418 39.5234C43.7206 38.7943 44.3089 37.8911 44.7067 36.8139L53.1087 37.7585C52.5784 39.9792 51.5675 41.9181 50.076 43.5753C48.6011 45.2159 46.7119 46.492 44.4084 47.4034C42.1049 48.2983 39.4699 48.7457 36.5036 48.7457ZM94.1056 9.81818L80.5083 48H70.5652L56.9679 9.81818H66.563L75.3379 38.1811H75.7356L84.5353 9.81818H94.1056ZM115.937 48.7457C112.109 48.7457 108.803 47.9503 106.019 46.3594C103.251 44.7519 101.122 42.4815 99.6303 39.5483C98.1388 36.5985 97.3931 33.1267 97.3931 29.1328C97.3931 25.2053 98.1388 21.7583 99.6303 18.7919C101.138 15.8089 103.243 13.4889 105.944 11.8317C108.645 10.1579 111.819 9.32102 115.465 9.32102C117.818 9.32102 120.039 9.70218 122.127 10.4645C124.231 11.2102 126.087 12.3703 127.695 13.9446C129.319 15.5189 130.595 17.5241 131.523 19.9602C132.451 22.3797 132.915 25.2633 132.915 28.6108V31.37H101.619V25.3047H124.289C124.273 23.5812 123.9 22.0483 123.171 20.706C122.442 19.3471 121.422 18.2782 120.113 17.4993C118.821 16.7204 117.313 16.331 115.589 16.331C113.75 16.331 112.134 16.7784 110.742 17.6733C109.35 18.5516 108.264 19.7116 107.485 21.1534C106.723 22.5786 106.334 24.1446 106.317 25.8516V31.1463C106.317 33.367 106.723 35.2727 107.535 36.8636C108.347 38.438 109.482 39.6477 110.941 40.4929C112.399 41.3215 114.106 41.7358 116.061 41.7358C117.371 41.7358 118.556 41.5535 119.616 41.1889C120.677 40.8078 121.596 40.2526 122.375 39.5234C123.154 38.7943 123.743 37.8911 124.14 36.8139L132.542 37.7585C132.012 39.9792 131.001 41.9181 129.51 43.5753C128.035 45.2159 126.145 46.492 123.842 47.4034C121.538 48.2983 118.904 48.7457 115.937 48.7457ZM149.526 25.6278V48H140.528V9.81818H149.129V16.3061H149.576C150.454 14.1683 151.855 12.4697 153.777 11.2102C155.716 9.95076 158.111 9.32102 160.961 9.32102C163.596 9.32102 165.891 9.88447 167.847 11.0114C169.819 12.1383 171.343 13.7706 172.421 15.9084C173.514 18.0462 174.053 20.6397 174.036 23.6889V48H165.038V25.081C165.038 22.5289 164.375 20.532 163.049 19.0902C161.74 17.6484 159.925 16.9276 157.605 16.9276C156.031 16.9276 154.631 17.2756 153.404 17.9716C152.195 18.651 151.242 19.6371 150.546 20.9297C149.866 22.2223 149.526 23.7884 149.526 25.6278ZM202.25 9.81818V16.7784H180.301V9.81818H202.25ZM185.72 0.670454H194.718V36.5156C194.718 37.7254 194.901 38.6534 195.265 39.2997C195.646 39.9295 196.143 40.3603 196.757 40.5923C197.37 40.8243 198.049 40.9403 198.795 40.9403C199.358 40.9403 199.872 40.8989 200.336 40.8161C200.817 40.7332 201.181 40.6586 201.43 40.5923L202.946 47.6271C202.466 47.7929 201.778 47.9751 200.883 48.174C200.005 48.3729 198.927 48.4889 197.651 48.522C195.398 48.5883 193.368 48.2486 191.561 47.5028C189.755 46.7405 188.321 45.5639 187.261 43.973C186.217 42.3821 185.703 40.3935 185.72 38.0071V0.670454ZM239.407 19.9105L231.203 20.8054C230.971 19.9768 230.565 19.1979 229.985 18.4688C229.422 17.7396 228.66 17.1513 227.699 16.7038C226.737 16.2564 225.561 16.0327 224.169 16.0327C222.296 16.0327 220.722 16.4387 219.446 17.2507C218.186 18.0627 217.565 19.1151 217.581 20.4077C217.565 21.518 217.971 22.4212 218.799 23.1172C219.645 23.8132 221.037 24.3849 222.975 24.8324L229.488 26.2244C233.101 27.0033 235.786 28.2379 237.542 29.9283C239.315 31.6186 240.21 33.831 240.227 36.5653C240.21 38.9683 239.506 41.0895 238.114 42.929C236.739 44.7519 234.824 46.1771 232.372 47.2045C229.919 48.232 227.102 48.7457 223.92 48.7457C219.247 48.7457 215.485 47.768 212.635 45.8125C209.784 43.8404 208.086 41.0978 207.539 37.5845L216.314 36.7393C216.711 38.4628 217.556 39.7637 218.849 40.642C220.142 41.5204 221.824 41.9595 223.895 41.9595C226.033 41.9595 227.748 41.5204 229.041 40.642C230.35 39.7637 231.005 38.6783 231.005 37.3857C231.005 36.2919 230.582 35.3887 229.737 34.6761C228.908 33.9635 227.616 33.4167 225.859 33.0355L219.346 31.6683C215.684 30.906 212.974 29.6217 211.218 27.8153C209.461 25.9924 208.591 23.6889 208.608 20.9048C208.591 18.5516 209.229 16.5133 210.522 14.7898C211.831 13.0497 213.645 11.7074 215.966 10.7628C218.302 9.80161 220.995 9.32102 224.044 9.32102C228.519 9.32102 232.04 10.2739 234.609 12.1797C237.194 14.0855 238.793 16.6624 239.407 19.9105Z" fill="black"/>
</svg>
