<svg width="568" height="177" viewBox="0 0 568 177" fill="none" xmlns="http://www.w3.org/2000/svg">
<rect y="116" width="564" height="41" fill="#DEC584" fill-opacity="0.7"/>
<path d="M37.4545 61H17.7386V2.81818H37.8523C43.6288 2.81818 48.5909 3.98295 52.7386 6.3125C56.9053 8.6231 60.1061 11.947 62.3409 16.2841C64.5758 20.6212 65.6932 25.8106 65.6932 31.8523C65.6932 37.9129 64.5663 43.1212 62.3125 47.4773C60.0777 51.8333 56.8485 55.1761 52.625 57.5057C48.4205 59.8352 43.3636 61 37.4545 61ZM28.2784 51.8807H36.9432C40.9962 51.8807 44.3769 51.142 47.0852 49.6648C49.7936 48.1686 51.8295 45.9432 53.1932 42.9886C54.5568 40.0152 55.2386 36.303 55.2386 31.8523C55.2386 27.4015 54.5568 23.7083 53.1932 20.7727C51.8295 17.8182 49.8125 15.6117 47.142 14.1534C44.4905 12.6761 41.1951 11.9375 37.2557 11.9375H28.2784V51.8807ZM94.571 61.8523C90.196 61.8523 86.4176 60.9432 83.2358 59.125C80.0729 57.2879 77.6392 54.6932 75.9347 51.3409C74.2301 47.9697 73.3778 44.0019 73.3778 39.4375C73.3778 34.9489 74.2301 31.0095 75.9347 27.6193C77.6581 24.2102 80.0634 21.5587 83.1506 19.6648C86.2377 17.7519 89.8646 16.7955 94.0312 16.7955C96.7206 16.7955 99.2585 17.2311 101.645 18.1023C104.05 18.9545 106.171 20.2803 108.009 22.0795C109.865 23.8788 111.323 26.1705 112.384 28.9545C113.444 31.7197 113.974 35.0152 113.974 38.8409V41.9943H78.2074V35.0625H104.116C104.098 33.0928 103.671 31.3409 102.838 29.8068C102.005 28.2538 100.84 27.0322 99.3438 26.142C97.8665 25.2519 96.143 24.8068 94.1733 24.8068C92.071 24.8068 90.2244 25.3182 88.6335 26.3409C87.0426 27.3447 85.8021 28.6705 84.9119 30.3182C84.0407 31.947 83.5956 33.7367 83.5767 35.6875V41.7386C83.5767 44.2765 84.0407 46.4545 84.9688 48.2727C85.8968 50.072 87.1941 51.4545 88.8608 52.4205C90.5275 53.3674 92.4782 53.8409 94.7131 53.8409C96.2093 53.8409 97.5634 53.6326 98.7756 53.2159C99.9877 52.7803 101.039 52.1458 101.929 51.3125C102.819 50.4792 103.491 49.447 103.946 48.2159L113.548 49.2955C112.942 51.8333 111.787 54.0492 110.082 55.9432C108.397 57.8182 106.238 59.2765 103.605 60.3182C100.973 61.3409 97.9612 61.8523 94.571 61.8523ZM144.777 17.3636V25.3182H118.982V17.3636H144.777ZM125.43 61V13.2443C125.43 10.3087 126.036 7.86553 127.249 5.91477C128.48 3.96401 130.127 2.50568 132.192 1.53977C134.256 0.57386 136.548 0.0909052 139.067 0.0909052C140.847 0.0909052 142.429 0.232952 143.811 0.517045C145.194 0.801135 146.216 1.05682 146.879 1.28409L144.834 9.23864C144.398 9.10606 143.849 8.97348 143.186 8.84091C142.523 8.68939 141.785 8.61364 140.97 8.61364C139.057 8.61364 137.703 9.07765 136.908 10.0057C136.131 10.9148 135.743 12.2216 135.743 13.9261V61H125.43ZM159.223 77.3636C157.821 77.3636 156.524 77.25 155.331 77.0227C154.157 76.8144 153.219 76.5682 152.518 76.2841L154.905 68.2727C156.401 68.7083 157.736 68.9167 158.911 68.8977C160.085 68.8788 161.117 68.5095 162.007 67.7898C162.916 67.089 163.683 65.9148 164.308 64.267L165.189 61.9091L149.365 17.3636H160.274L170.331 50.3182H170.786L180.871 17.3636H191.808L174.337 66.2841C173.522 68.5947 172.443 70.5739 171.098 72.2216C169.753 73.8883 168.106 75.1572 166.155 76.0284C164.223 76.9186 161.912 77.3636 159.223 77.3636ZM198.925 61V17.3636H209.209V61H198.925ZM204.095 11.1705C202.466 11.1705 201.065 10.6307 199.891 9.55114C198.716 8.45265 198.129 7.13636 198.129 5.60227C198.129 4.04924 198.716 2.73295 199.891 1.65341C201.065 0.554922 202.466 0.00568008 204.095 0.00568008C205.743 0.00568008 207.144 0.554922 208.3 1.65341C209.474 2.73295 210.061 4.04924 210.061 5.60227C210.061 7.13636 209.474 8.45265 208.3 9.55114C207.144 10.6307 205.743 11.1705 204.095 11.1705ZM230.068 35.4318V61H219.784V17.3636H229.614V24.7784H230.125C231.129 22.3352 232.729 20.3939 234.926 18.9545C237.142 17.5152 239.879 16.7955 243.136 16.7955C246.148 16.7955 248.771 17.4394 251.006 18.7273C253.259 20.0152 255.002 21.8807 256.233 24.3239C257.483 26.767 258.098 29.7311 258.08 33.2159V61H247.795V34.8068C247.795 31.8902 247.038 29.608 245.523 27.9602C244.027 26.3125 241.953 25.4886 239.301 25.4886C237.502 25.4886 235.902 25.8864 234.5 26.6818C233.117 27.4583 232.028 28.5852 231.233 30.0625C230.456 31.5398 230.068 33.3295 230.068 35.4318ZM287.511 78.2727C283.818 78.2727 280.646 77.7708 277.994 76.767C275.343 75.7822 273.212 74.4564 271.602 72.7898C269.992 71.1231 268.875 69.2765 268.25 67.25L277.511 65.0057C277.928 65.858 278.534 66.7008 279.33 67.5341C280.125 68.3864 281.195 69.0871 282.54 69.6364C283.903 70.2045 285.617 70.4886 287.682 70.4886C290.598 70.4886 293.013 69.7784 294.926 68.358C296.839 66.9564 297.795 64.6458 297.795 61.4261V53.1591H297.284C296.754 54.2197 295.977 55.3087 294.955 56.4261C293.951 57.5436 292.616 58.4811 290.949 59.2386C289.301 59.9962 287.227 60.375 284.727 60.375C281.375 60.375 278.335 59.589 275.608 58.017C272.9 56.4261 270.741 54.0587 269.131 50.9148C267.54 47.7519 266.744 43.7936 266.744 39.0398C266.744 34.2481 267.54 30.2045 269.131 26.9091C270.741 23.5947 272.909 21.0852 275.636 19.3807C278.364 17.6572 281.403 16.7955 284.756 16.7955C287.313 16.7955 289.415 17.2311 291.062 18.1023C292.729 18.9545 294.055 19.9867 295.04 21.1989C296.025 22.392 296.773 23.5189 297.284 24.5795H297.852V17.3636H307.994V61.7102C307.994 65.4413 307.104 68.5284 305.324 70.9716C303.544 73.4148 301.11 75.2424 298.023 76.4545C294.936 77.6667 291.432 78.2727 287.511 78.2727ZM287.597 52.3068C289.775 52.3068 291.631 51.7765 293.165 50.7159C294.699 49.6553 295.864 48.1307 296.659 46.142C297.455 44.1534 297.852 41.767 297.852 38.983C297.852 36.2367 297.455 33.8314 296.659 31.767C295.883 29.7027 294.727 28.1023 293.193 26.9659C291.678 25.8106 289.813 25.233 287.597 25.233C285.305 25.233 283.392 25.8295 281.858 27.0227C280.324 28.2159 279.169 29.8542 278.392 31.9375C277.616 34.0019 277.227 36.3504 277.227 38.983C277.227 41.6534 277.616 43.9924 278.392 46C279.188 47.9886 280.352 49.5417 281.886 50.6591C283.439 51.7576 285.343 52.3068 287.597 52.3068ZM42.7102 116.364L41.375 124.318H16.3182L17.625 116.364H42.7102ZM25.5227 105.909H35.8068L28.9886 146.875C28.7803 148.258 28.8182 149.318 29.1023 150.057C29.4053 150.777 29.8883 151.269 30.5511 151.534C31.233 151.799 32 151.932 32.8523 151.932C33.4773 151.932 34.0644 151.884 34.6136 151.79C35.1629 151.676 35.5985 151.591 35.9205 151.534L36.375 159.574C35.75 159.763 34.9072 159.972 33.8466 160.199C32.8049 160.426 31.5549 160.559 30.0966 160.597C27.483 160.653 25.2102 160.256 23.2784 159.403C21.3655 158.532 19.964 157.197 19.0739 155.398C18.2027 153.58 18.0038 151.307 18.4773 148.58L25.5227 105.909ZM59.5213 134.432L55.3168 160H45.0043L54.6634 101.818H64.7486L61.1122 123.778H61.652C63.0346 121.297 64.919 119.347 67.3054 117.926C69.7107 116.506 72.599 115.795 75.9702 115.795C78.9626 115.795 81.4815 116.43 83.527 117.699C85.5724 118.968 87.0118 120.824 87.8452 123.267C88.6974 125.71 88.8395 128.693 88.2713 132.216L83.6122 160H73.2997L77.6747 133.807C78.1482 130.871 77.7599 128.589 76.5099 126.96C75.2789 125.312 73.3281 124.489 70.6577 124.489C68.8206 124.489 67.1255 124.886 65.5724 125.682C64.0194 126.458 62.7126 127.585 61.652 129.062C60.6103 130.54 59.9001 132.33 59.5213 134.432ZM113.243 160.852C108.868 160.852 105.25 159.943 102.391 158.125C99.5308 156.288 97.5232 153.693 96.3679 150.341C95.2315 146.97 95.0421 143.002 95.7997 138.438C96.5384 133.949 98.044 130.009 100.317 126.619C102.589 123.21 105.43 120.559 108.839 118.665C112.268 116.752 116.055 115.795 120.203 115.795C122.893 115.795 125.364 116.231 127.618 117.102C129.872 117.955 131.775 119.28 133.328 121.08C134.881 122.879 135.951 125.17 136.538 127.955C137.125 130.72 137.097 134.015 136.453 137.841L135.97 140.994H100.175L101.283 134.062H127.192C127.533 132.093 127.419 130.341 126.851 128.807C126.283 127.254 125.336 126.032 124.01 125.142C122.684 124.252 121.027 123.807 119.038 123.807C117.012 123.807 115.118 124.328 113.357 125.369C111.614 126.392 110.146 127.718 108.953 129.347C107.76 130.975 107.002 132.689 106.68 134.489L105.516 141.136C105.099 143.864 105.194 146.089 105.8 147.812C106.406 149.536 107.466 150.805 108.982 151.619C110.497 152.434 112.41 152.841 114.72 152.841C116.235 152.841 117.637 152.633 118.925 152.216C120.213 151.799 121.358 151.174 122.362 150.341C123.385 149.489 124.237 148.447 124.919 147.216L134.322 148.295C133.281 150.833 131.756 153.049 129.749 154.943C127.741 156.818 125.336 158.277 122.533 159.318C119.749 160.341 116.652 160.852 113.243 160.852ZM158.683 176.364L168.74 116.364H178.854L177.689 123.58H178.286C178.967 122.519 179.886 121.392 181.041 120.199C182.215 118.987 183.702 117.955 185.501 117.102C187.301 116.231 189.488 115.795 192.064 115.795C195.416 115.795 198.304 116.657 200.729 118.381C203.153 120.085 204.886 122.614 205.928 125.966C206.988 129.299 207.121 133.39 206.325 138.239C205.53 143.03 204.062 147.102 201.922 150.455C199.782 153.807 197.215 156.364 194.223 158.125C191.231 159.886 188.02 160.767 184.592 160.767C182.092 160.767 180.075 160.35 178.541 159.517C177.026 158.684 175.88 157.68 175.104 156.506C174.327 155.312 173.75 154.186 173.371 153.125H172.916L169.053 176.364H158.683ZM175.189 138.182C174.734 141.004 174.725 143.475 175.161 145.597C175.615 147.718 176.515 149.375 177.859 150.568C179.204 151.742 180.965 152.33 183.143 152.33C185.416 152.33 187.405 151.723 189.109 150.511C190.833 149.28 192.263 147.604 193.399 145.483C194.554 143.343 195.369 140.909 195.842 138.182C196.278 135.473 196.278 133.068 195.842 130.966C195.407 128.864 194.526 127.216 193.2 126.023C191.875 124.83 190.075 124.233 187.803 124.233C185.587 124.233 183.607 124.811 181.865 125.966C180.142 127.121 178.712 128.741 177.575 130.824C176.439 132.907 175.643 135.36 175.189 138.182ZM223.903 160.881C221.138 160.881 218.733 160.388 216.688 159.403C214.642 158.4 213.136 156.922 212.17 154.972C211.223 153.021 210.987 150.616 211.46 147.756C211.877 145.294 212.672 143.258 213.847 141.648C215.04 140.038 216.498 138.75 218.222 137.784C219.964 136.799 221.858 136.061 223.903 135.568C225.968 135.076 228.07 134.716 230.21 134.489C232.824 134.223 234.936 133.977 236.545 133.75C238.174 133.523 239.396 133.182 240.21 132.727C241.025 132.254 241.517 131.534 241.688 130.568V130.398C242.028 128.258 241.688 126.6 240.665 125.426C239.642 124.252 237.938 123.665 235.551 123.665C233.051 123.665 230.949 124.214 229.244 125.312C227.54 126.411 226.299 127.708 225.523 129.205L216.205 127.841C217.379 125.189 218.989 122.973 221.034 121.193C223.08 119.394 225.438 118.049 228.108 117.159C230.797 116.25 233.667 115.795 236.716 115.795C238.799 115.795 240.835 116.042 242.824 116.534C244.831 117.027 246.602 117.841 248.136 118.977C249.689 120.095 250.826 121.619 251.545 123.551C252.284 125.483 252.407 127.898 251.915 130.795L247.057 160H237.17L238.193 154.006H237.852C237.038 155.218 235.977 156.354 234.67 157.415C233.364 158.456 231.811 159.299 230.011 159.943C228.212 160.568 226.176 160.881 223.903 160.881ZM227.795 153.324C229.86 153.324 231.716 152.917 233.364 152.102C235.011 151.269 236.366 150.17 237.426 148.807C238.487 147.443 239.15 145.956 239.415 144.347L240.267 139.205C239.888 139.47 239.301 139.716 238.506 139.943C237.71 140.17 236.82 140.369 235.835 140.54C234.869 140.71 233.913 140.862 232.966 140.994C232.019 141.127 231.205 141.241 230.523 141.335C228.951 141.544 227.511 141.884 226.205 142.358C224.917 142.831 223.847 143.494 222.994 144.347C222.161 145.18 221.64 146.259 221.432 147.585C221.129 149.46 221.574 150.89 222.767 151.875C223.96 152.841 225.636 153.324 227.795 153.324ZM286.46 116.364L285.125 124.318H260.068L261.375 116.364H286.46ZM269.273 105.909H279.557L272.739 146.875C272.53 148.258 272.568 149.318 272.852 150.057C273.155 150.777 273.638 151.269 274.301 151.534C274.983 151.799 275.75 151.932 276.602 151.932C277.227 151.932 277.814 151.884 278.364 151.79C278.913 151.676 279.348 151.591 279.67 151.534L280.125 159.574C279.5 159.763 278.657 159.972 277.597 160.199C276.555 160.426 275.305 160.559 273.847 160.597C271.233 160.653 268.96 160.256 267.028 159.403C265.116 158.532 263.714 157.197 262.824 155.398C261.953 153.58 261.754 151.307 262.227 148.58L269.273 105.909ZM287.788 160L295.061 116.364H305.033L303.811 123.636H304.266C305.459 121.117 307.144 119.176 309.322 117.812C311.519 116.43 313.868 115.739 316.368 115.739C316.955 115.739 317.589 115.767 318.271 115.824C318.953 115.862 319.54 115.928 320.033 116.023L318.442 125.483C318.006 125.331 317.324 125.199 316.396 125.085C315.487 124.953 314.588 124.886 313.697 124.886C311.822 124.886 310.08 125.294 308.47 126.108C306.879 126.903 305.535 128.011 304.436 129.432C303.338 130.852 302.627 132.491 302.305 134.347L298.072 160H287.788ZM319.585 160L326.858 116.364H337.142L329.869 160H319.585ZM333.506 110.114C331.858 110.114 330.494 109.564 329.415 108.466C328.335 107.367 327.862 106.051 327.994 104.517C328.127 102.983 328.818 101.667 330.068 100.568C331.337 99.4697 332.786 98.9205 334.415 98.9205C336.063 98.9205 337.417 99.4697 338.477 100.568C339.557 101.667 340.03 102.983 339.898 104.517C339.784 106.051 339.093 107.367 337.824 108.466C336.574 109.564 335.134 110.114 333.506 110.114ZM352.888 160.881C350.123 160.881 347.717 160.388 345.672 159.403C343.626 158.4 342.121 156.922 341.155 154.972C340.208 153.021 339.971 150.616 340.445 147.756C340.861 145.294 341.657 143.258 342.831 141.648C344.024 140.038 345.482 138.75 347.206 137.784C348.948 136.799 350.842 136.061 352.888 135.568C354.952 135.076 357.054 134.716 359.195 134.489C361.808 134.223 363.92 133.977 365.53 133.75C367.159 133.523 368.38 133.182 369.195 132.727C370.009 132.254 370.501 131.534 370.672 130.568V130.398C371.013 128.258 370.672 126.6 369.649 125.426C368.626 124.252 366.922 123.665 364.536 123.665C362.036 123.665 359.933 124.214 358.229 125.312C356.524 126.411 355.284 127.708 354.507 129.205L345.189 127.841C346.363 125.189 347.973 122.973 350.018 121.193C352.064 119.394 354.422 118.049 357.092 117.159C359.782 116.25 362.651 115.795 365.7 115.795C367.784 115.795 369.82 116.042 371.808 116.534C373.816 117.027 375.587 117.841 377.121 118.977C378.674 120.095 379.81 121.619 380.53 123.551C381.268 125.483 381.392 127.898 380.899 130.795L376.041 160H366.155L367.178 154.006H366.837C366.022 155.218 364.962 156.354 363.655 157.415C362.348 158.456 360.795 159.299 358.996 159.943C357.196 160.568 355.161 160.881 352.888 160.881ZM356.78 153.324C358.844 153.324 360.7 152.917 362.348 152.102C363.996 151.269 365.35 150.17 366.411 148.807C367.471 147.443 368.134 145.956 368.399 144.347L369.251 139.205C368.873 139.47 368.286 139.716 367.49 139.943C366.695 140.17 365.804 140.369 364.82 140.54C363.854 140.71 362.897 140.862 361.95 140.994C361.003 141.127 360.189 141.241 359.507 141.335C357.935 141.544 356.496 141.884 355.189 142.358C353.901 142.831 352.831 143.494 351.979 144.347C351.145 145.18 350.625 146.259 350.416 147.585C350.113 149.46 350.558 150.89 351.751 151.875C352.945 152.841 354.621 153.324 356.78 153.324ZM386.382 160L393.655 116.364H403.626L402.405 123.636H402.859C404.053 121.117 405.738 119.176 407.916 117.812C410.113 116.43 412.462 115.739 414.962 115.739C415.549 115.739 416.183 115.767 416.865 115.824C417.547 115.862 418.134 115.928 418.626 116.023L417.036 125.483C416.6 125.331 415.918 125.199 414.99 125.085C414.081 124.953 413.181 124.886 412.291 124.886C410.416 124.886 408.674 125.294 407.064 126.108C405.473 126.903 404.128 128.011 403.03 129.432C401.931 130.852 401.221 132.491 400.899 134.347L396.666 160H386.382ZM435.303 160.852C430.946 160.852 427.367 159.896 424.564 157.983C421.761 156.07 419.801 153.428 418.683 150.057C417.585 146.667 417.405 142.765 418.143 138.352C418.863 133.92 420.35 130.009 422.604 126.619C424.876 123.21 427.736 120.559 431.183 118.665C434.63 116.752 438.484 115.795 442.746 115.795C446.287 115.795 449.308 116.449 451.808 117.756C454.327 119.044 456.202 120.871 457.433 123.239C458.683 125.587 459.166 128.333 458.882 131.477H449.024C448.986 129.375 448.333 127.623 447.064 126.222C445.795 124.801 443.939 124.091 441.496 124.091C439.375 124.091 437.424 124.659 435.643 125.795C433.863 126.913 432.357 128.523 431.126 130.625C429.895 132.727 429.043 135.246 428.57 138.182C428.077 141.155 428.087 143.712 428.598 145.852C429.128 147.973 430.085 149.612 431.467 150.767C432.869 151.903 434.64 152.472 436.78 152.472C438.295 152.472 439.706 152.187 441.013 151.619C442.32 151.032 443.465 150.189 444.45 149.091C445.454 147.992 446.24 146.657 446.808 145.085H456.638C455.861 148.172 454.479 150.909 452.49 153.295C450.52 155.663 448.077 157.519 445.161 158.864C442.244 160.189 438.958 160.852 435.303 160.852ZM477.099 134.432L472.895 160H462.582L472.241 101.818H482.327L478.69 123.778H479.23C480.613 121.297 482.497 119.347 484.884 117.926C487.289 116.506 490.177 115.795 493.548 115.795C496.541 115.795 499.06 116.43 501.105 117.699C503.151 118.968 504.59 120.824 505.423 123.267C506.276 125.71 506.418 128.693 505.849 132.216L501.19 160H490.878L495.253 133.807C495.726 130.871 495.338 128.589 494.088 126.96C492.857 125.312 490.906 124.489 488.236 124.489C486.399 124.489 484.704 124.886 483.151 125.682C481.598 126.458 480.291 127.585 479.23 129.062C478.188 130.54 477.478 132.33 477.099 134.432ZM513.776 176.364C512.374 176.364 511.096 176.25 509.94 176.023C508.804 175.814 507.904 175.568 507.241 175.284L510.991 167.273C512.412 167.708 513.69 167.898 514.827 167.841C515.982 167.803 517.043 167.415 518.009 166.676C518.993 165.956 519.959 164.773 520.906 163.125L522.213 160.767L513.861 116.364H524.372L528.918 149.375H529.372L544.969 116.364H556.304L530.764 165.227C529.533 167.595 528.103 169.602 526.474 171.25C524.846 172.917 522.98 174.186 520.878 175.057C518.795 175.928 516.427 176.364 513.776 176.364ZM560.345 160.625C558.603 160.625 557.163 160.019 556.027 158.807C554.891 157.595 554.36 156.117 554.436 154.375C554.512 152.67 555.203 151.222 556.51 150.028C557.817 148.835 559.322 148.239 561.027 148.239C562.713 148.239 564.143 148.845 565.317 150.057C566.51 151.269 567.05 152.708 566.936 154.375C566.86 155.549 566.5 156.61 565.857 157.557C565.232 158.504 564.436 159.252 563.47 159.801C562.504 160.35 561.463 160.625 560.345 160.625Z" fill="black"/>
</svg>
